<?xml version="1.0" standalone="no" ?>
<!DOCTYPE svg PUBLIC "-//W3C//DTD SVG 20010904//EN" "http://www.w3.org/TR/2001/REC-SVG-20010904/DTD/svg10.dtd">
<svg version="1.0" xmlns="http://www.w3.org/2000/svg" width="512.000000pt" height="512.000000pt" viewBox="0 0 512.000000 512.000000" preserveAspectRatio="xMidYMid meet">
    <metadata>
Created by potrace 1.15, written by Peter Selinger 2001-2017
</metadata>
    <g transform="translate(0.000000,512.000000) scale(0.100000,-0.100000)" fill="#000000" stroke="none">
        <path d="M2465 5095 c-33 -14 -69 -29 -80 -35 -11 -5 -74 -33 -140 -61 l-120
-52 -277 -6 -277 -6 -63 -67 c-124 -132 -302 -291 -348 -311 -25 -10 -85 -38
-135 -62 -49 -23 -101 -45 -115 -49 -14 -4 -57 -21 -96 -38 l-71 -31 -31 -71
c-16 -39 -39 -93 -50 -121 -64 -158 -118 -265 -157 -310 -24 -27 -106 -114
-183 -193 l-141 -143 -3 -267 -3 -267 -49 -115 c-26 -63 -56 -133 -67 -156
-39 -87 -59 -146 -59 -175 0 -17 30 -101 66 -187 122 -290 114 -251 114 -538
l0 -252 165 -170 c91 -93 173 -180 184 -193 20 -26 52 -97 185 -408 l31 -74
95 -37 c97 -38 327 -140 367 -163 11 -6 101 -90 198 -184 l177 -173 255 0 256
0 91 -39 c384 -164 366 -161 556 -81 69 28 162 67 207 86 l83 34 255 0 255 0
183 178 c200 197 181 184 467 303 201 84 186 73 221 158 29 72 51 123 135 313
34 78 48 94 215 265 l179 183 0 255 0 255 34 83 c116 281 137 336 142 367 6
35 -10 96 -47 176 -10 22 -28 65 -39 95 -12 30 -28 68 -35 84 -55 118 -55 121
-55 389 l0 252 -177 183 -177 182 -58 127 c-32 70 -77 174 -100 232 -22 58
-44 109 -48 113 -4 4 -60 29 -126 56 -65 26 -144 59 -174 74 -30 14 -84 39
-120 55 -54 26 -93 59 -240 203 l-175 173 -270 6 -270 6 -115 48 c-63 27 -156
66 -206 87 -106 45 -137 47 -219 14z m320 -280 l210 -85 230 0 230 -1 171
-167 c128 -125 183 -171 215 -183 24 -9 119 -50 212 -90 l167 -74 65 -155 c36
-85 76 -179 88 -208 17 -41 59 -91 187 -224 l165 -171 6 -241 5 -241 47 -115
c26 -63 63 -156 83 -206 l36 -91 -47 -124 c-26 -68 -64 -167 -85 -219 l-39
-95 -3 -231 -3 -231 -165 -171 c-141 -146 -169 -180 -191 -234 -15 -35 -55
-129 -89 -210 l-62 -146 -209 -89 -210 -88 -174 -167 -174 -168 -231 0 c-176
0 -237 -3 -258 -14 -15 -7 -112 -46 -215 -86 l-189 -72 -136 52 c-76 29 -174
68 -219 87 l-82 33 -228 0 -229 0 -39 41 c-22 23 -101 98 -175 168 -133 125
-137 128 -250 175 -63 27 -156 66 -206 88 l-91 39 -93 213 -93 213 -163 171
-164 170 0 227 0 226 -85 212 c-47 116 -85 219 -85 227 0 9 38 111 85 227 l85
212 0 228 0 228 162 165 c130 133 166 176 187 225 15 33 58 131 96 217 l69
157 50 21 c28 11 124 53 214 93 l163 71 167 163 167 163 230 0 230 0 210 85
c116 47 217 85 225 85 9 0 110 -38 225 -85z" />
        <path d="M2885 4168 c-120 -42 -195 -159 -182 -282 9 -90 61 -166 142 -209 57
-31 183 -31 241 0 93 49 152 157 141 258 -17 165 -194 285 -342 233z m175
-100 c48 -26 79 -75 87 -136 8 -73 -31 -153 -90 -184 -50 -26 -128 -28 -174
-5 -104 54 -135 199 -61 283 65 74 152 89 238 42z" />
        <path d="M1401 4084 l-72 -77 -109 5 c-78 4 -110 2 -111 -6 0 -6 0 -56 1 -112
l1 -101 -81 -75 -81 -75 80 -72 81 -73 0 -116 0 -115 107 7 107 7 81 -81 82
-81 73 81 73 81 111 -3 111 -3 -4 107 -3 107 82 78 82 77 -82 75 -83 75 6 108
c6 125 23 111 -128 108 l-90 -1 -75 75 c-41 42 -78 76 -81 76 -4 0 -39 -34
-78 -76z" />
        <path d="M3996 3265 l-67 -75 -116 0 -116 0 7 -108 7 -109 -75 -73 c-42 -40
-76 -78 -76 -84 0 -6 34 -43 76 -82 l75 -73 -3 -108 -3 -108 108 4 108 3 77
-83 77 -82 77 83 77 83 110 -7 110 -8 -6 114 -6 114 82 75 81 76 -81 73 -81
74 3 110 4 111 -112 3 -112 3 -69 74 c-39 41 -74 75 -79 75 -5 0 -40 -34 -77
-75z" />
        <path d="M2548 2874 c-27 -28 -30 -28 -99 0 -12 5 -19 -3 -28 -34 -12 -39 -13
-40 -59 -40 l-47 0 3 -44 c4 -45 4 -45 -37 -57 -32 -9 -40 -16 -35 -28 27 -69
27 -71 -2 -102 l-28 -29 28 -29 c29 -30 29 -30 12 -71 l-16 -40 40 -16 c38
-15 40 -18 40 -61 l0 -44 45 7 c28 4 45 2 45 -4 0 -5 7 -26 15 -46 l15 -36 38
19 37 19 33 -31 32 -31 28 33 28 34 41 -22 c46 -23 45 -23 63 32 12 37 13 38
53 35 l42 -3 -3 42 c-3 40 -2 41 35 53 55 18 55 17 32 63 l-22 41 34 28 33 28
-31 32 -31 33 19 37 c21 40 21 40 -34 58 l-39 12 7 44 6 44 -44 0 c-43 0 -46
2 -61 40 l-16 40 -40 -16 c-41 -16 -41 -16 -69 10 -15 14 -29 26 -32 26 -2 0
-16 -12 -31 -26z" />
        <path d="M1110 2441 c-46 -14 -85 -39 -121 -78 -58 -60 -73 -98 -74 -178 0
-115 53 -193 166 -245 134 -60 312 23 350 164 15 56 6 153 -19 203 -54 104
-194 167 -302 134z m161 -97 c64 -32 106 -116 95 -188 -20 -125 -155 -192
-273 -135 -44 21 -84 75 -97 132 -14 58 34 160 87 189 55 29 134 30 188 2z" />
        <path d="M3512 1839 c-113 -22 -212 -142 -212 -259 0 -93 78 -211 162 -245 56
-23 160 -23 213 -1 119 50 182 193 145 328 -34 119 -178 202 -308 177z m144
-97 c44 -24 92 -89 99 -135 17 -110 -75 -217 -185 -217 -115 0 -209 121 -180
231 11 41 58 102 94 121 48 27 123 27 172 0z" />
        <path d="M2047 1555 l-68 -75 -115 0 -114 0 0 -114 0 -114 -77 -71 -78 -70 78
-78 77 -78 0 -114 0 -113 108 7 108 7 79 -82 80 -82 78 82 78 82 110 -7 109
-7 -6 111 -7 111 83 77 82 78 -82 79 -82 78 3 107 4 106 -111 3 -110 3 -74 74
c-41 41 -77 75 -80 75 -3 0 -36 -34 -73 -75z" />
    </g>
</svg>